<svg viewBox="0 0 1060 390" role="img" aria-label="Obsidian High Recall Skill — Local-first recall architecture, backend routing, privacy boundary, and public benchmark artifacts (architecture diagram)">
        <!-- Definitions -->
        <defs>
          <marker id="arrowhead" markerWidth="10" markerHeight="7" refX="9" refY="3.5" orient="auto">
            <polygon points="0 0, 10 3.5, 0 7" class="m-default" />
          </marker>
          <marker id="arrowhead-emphasis" markerWidth="10" markerHeight="7" refX="9" refY="3.5" orient="auto">
            <polygon points="0 0, 10 3.5, 0 7" class="m-emphasis" />
          </marker>
          <marker id="arrowhead-security" markerWidth="10" markerHeight="7" refX="9" refY="3.5" orient="auto">
            <polygon points="0 0, 10 3.5, 0 7" class="m-security" />
          </marker>
          <marker id="arrowhead-dashed" markerWidth="10" markerHeight="7" refX="9" refY="3.5" orient="auto">
            <polygon points="0 0, 10 3.5, 0 7" class="m-dashed" />
          </marker>
          <pattern id="grid" width="40" height="40" patternUnits="userSpaceOnUse">
            <path d="M 40 0 L 0 0 0 40" class="c-grid" stroke-width="0.5"/>
          </pattern>
        </defs>

        <!-- Background Grid -->
        <rect width="100%" height="100%" fill="url(#grid)" />

        <!-- Boundaries (behind everything) -->
        <rect x="8" y="34" width="876" height="320" rx="8" class="c-security-group" stroke-width="1"/>
        <text x="16" y="52" class="t-security" font-size="9" font-weight="600">Private boundary: raw content stays local</text>

        <rect x="877" y="242" width="181" height="112" rx="12" class="c-region" stroke-width="1"/>
        <text x="885" y="260" class="t-cloud" font-size="9" font-weight="600">Public GitHub artifacts</text>

        <!-- Connection paths (before components for correct z-order) -->
        <path d="M 139 192 L 165 192" class="a-emphasis" stroke-width="1.8" marker-end="url(#arrowhead-emphasis)"/>
        <path d="M 230 229 L 230 244.5 L 230 244.5 L 230 260" class="a-security" stroke-width="1.5" marker-end="url(#arrowhead-security)"/>
        <path d="M 295 192 L 312 192 Q 320 192 320 184 L 320 92 Q 320 84 328 84 L 345 84" class="a-emphasis" stroke-width="1.8" marker-end="url(#arrowhead-emphasis)"/>
        <path d="M 295 192 L 312 192 Q 320 192 320 200 L 320 284 Q 320 292 328 292 L 345 292" class="a-dashed" stroke-width="1.5" marker-end="url(#arrowhead-dashed)"/>
        <path d="M 295 292 L 307 292 Q 315 292 315 284 L 315 158 Q 315 150 323 150 L 407 150 Q 415 150 415 142 L 415 118" class="a-security" stroke-width="1.5" marker-end="url(#arrowhead-security)"/>
        <path d="M 295 292 L 345 292" class="a-security" stroke-width="1.5" marker-end="url(#arrowhead-security)"/>
        <path d="M 485 84 L 502 84 Q 510 84 510 92 L 510 184 Q 510 192 518 192 L 535 192" class="a-emphasis" stroke-width="1.8" marker-end="url(#arrowhead-emphasis)"/>
        <path d="M 485 292 L 502 292 Q 510 292 510 284 L 510 200 Q 510 192 518 192 L 535 192" class="a-dashed" stroke-width="1.5" marker-end="url(#arrowhead-dashed)"/>
        <path d="M 675 192 L 694.5 192 Q 702.5 192 702.5 184 L 702.5 92 Q 702.5 84 710.5 84 L 730 84" class="a-emphasis" stroke-width="1.8" marker-end="url(#arrowhead-emphasis)"/>
        <path d="M 675 192 L 694.5 192 Q 702.5 192 702.5 200 L 702.5 294 Q 702.5 302 710.5 302 L 730 302" class="a-security" stroke-width="1.5" marker-end="url(#arrowhead-security)"/>
        <path d="M 868 302 L 905 302" class="a-security" stroke-width="1.5" marker-end="url(#arrowhead-security)"/>

        <!-- Components -->
        <rect x="24" y="163" width="115" height="58" rx="6" class="c-mask"/>
        <rect x="24" y="163" width="115" height="58" rx="6" class="c-external" stroke-width="1.5"/>
        <text x="81.5" y="190" class="t-primary" font-size="11" font-weight="600" text-anchor="middle">Codex user</text>
        <text x="81.5" y="206" class="t-muted" font-size="9" text-anchor="middle">recall query</text>

        <rect x="165" y="155" width="130" height="74" rx="6" class="c-mask"/>
        <rect x="165" y="155" width="130" height="74" rx="6" class="c-backend" stroke-width="1.5"/>
        <text x="230" y="190" class="t-primary" font-size="11" font-weight="600" text-anchor="middle">Skill runtime</text>
        <text x="230" y="206" class="t-muted" font-size="9" text-anchor="middle">SKILL.md + Node CLI</text>
        <text x="230" y="221" class="t-backend" font-size="7" text-anchor="middle">auto route</text>

        <rect x="165" y="260" width="130" height="64" rx="6" class="c-mask"/>
        <rect x="165" y="260" width="130" height="64" rx="6" class="c-database" stroke-width="1.5"/>
        <text x="230" y="290" class="t-primary" font-size="11" font-weight="600" text-anchor="middle">Obsidian vault</text>
        <text x="230" y="306" class="t-muted" font-size="9" text-anchor="middle">Markdown notes</text>
        <text x="230" y="316" class="t-database" font-size="7" text-anchor="middle">private local</text>

        <rect x="345" y="50" width="140" height="68" rx="6" class="c-mask"/>
        <rect x="345" y="50" width="140" height="68" rx="6" class="c-backend" stroke-width="1.5"/>
        <text x="415" y="82" class="t-primary" font-size="11" font-weight="600" text-anchor="middle">Smart backend</text>
        <text x="415" y="98" class="t-muted" font-size="9" text-anchor="middle">Smart vectors</text>
        <text x="415" y="110" class="t-backend" font-size="7" text-anchor="middle">fast recall</text>

        <rect x="345" y="260" width="140" height="64" rx="6" class="c-mask"/>
        <rect x="345" y="260" width="140" height="64" rx="6" class="c-backend" stroke-width="1.5"/>
        <text x="415" y="290" class="t-primary" font-size="11" font-weight="600" text-anchor="middle">OHS backend</text>
        <text x="415" y="306" class="t-muted" font-size="9" text-anchor="middle">hybrid + fulltext</text>
        <text x="415" y="316" class="t-backend" font-size="7" text-anchor="middle">local fallback</text>

        <rect x="535" y="155" width="140" height="74" rx="6" class="c-mask"/>
        <rect x="535" y="155" width="140" height="74" rx="6" class="c-messagebus" stroke-width="1.5"/>
        <text x="605" y="190" class="t-primary" font-size="11" font-weight="600" text-anchor="middle">Merge + rank</text>
        <text x="605" y="206" class="t-muted" font-size="9" text-anchor="middle">dedupe + RRF</text>
        <text x="605" y="221" class="t-messagebus" font-size="7" text-anchor="middle">high recall</text>

        <rect x="730" y="50" width="138" height="68" rx="6" class="c-mask"/>
        <rect x="730" y="50" width="138" height="68" rx="6" class="c-cloud" stroke-width="1.5"/>
        <text x="799" y="82" class="t-primary" font-size="11" font-weight="600" text-anchor="middle">Recall pack</text>
        <text x="799" y="98" class="t-muted" font-size="9" text-anchor="middle">JSON hits + snippets</text>
        <text x="799" y="110" class="t-cloud" font-size="7" text-anchor="middle">to Codex</text>

        <rect x="730" y="270" width="138" height="64" rx="6" class="c-mask"/>
        <rect x="730" y="270" width="138" height="64" rx="6" class="c-security" stroke-width="1.5"/>
        <text x="799" y="300" class="t-primary" font-size="11" font-weight="600" text-anchor="middle">Private evaluation</text>
        <text x="799" y="316" class="t-muted" font-size="9" text-anchor="middle">gold labels + runs</text>
        <text x="799" y="326" class="t-security" font-size="7" text-anchor="middle">local only</text>

        <rect x="905" y="270" width="125" height="64" rx="6" class="c-mask"/>
        <rect x="905" y="270" width="125" height="64" rx="6" class="c-cloud" stroke-width="1.5"/>
        <text x="967.5" y="300" class="t-primary" font-size="11" font-weight="600" text-anchor="middle">Public repo</text>
        <text x="967.5" y="316" class="t-muted" font-size="9" text-anchor="middle">docs + figures</text>
        <text x="967.5" y="326" class="t-cloud" font-size="7" text-anchor="middle">aggregate only</text>

        <!-- Connection labels -->
        <rect x="134" y="138" width="34" height="14" rx="3" class="c-mask"/>
        <text x="151" y="148" class="t-backend" font-size="8" text-anchor="middle">query</text>
        <rect x="191.4" y="236" width="77.2" height="14" rx="3" class="c-mask"/>
        <text x="230" y="246" class="t-security" font-size="8" text-anchor="middle">discover vault</text>
        <rect x="273" y="122" width="58" height="14" rx="3" class="c-mask"/>
        <text x="302" y="132" class="t-backend" font-size="8" text-anchor="middle">Smart path</text>
        <rect x="283.8" y="234" width="72.4" height="14" rx="3" class="c-mask"/>
        <text x="320" y="244" class="t-messagebus" font-size="8" text-anchor="middle">fallback/both</text>
        <rect x="337" y="140" width="58" height="14" rx="3" class="c-mask"/>
        <text x="366" y="150" class="t-security" font-size="8" text-anchor="middle">.smart-env</text>
        <rect x="288.6" y="328" width="62.8" height="14" rx="3" class="c-mask"/>
        <text x="320" y="338" class="t-security" font-size="8" text-anchor="middle">local index</text>
        <rect x="478.6" y="136" width="62.8" height="14" rx="3" class="c-mask"/>
        <text x="510" y="146" class="t-backend" font-size="8" text-anchor="middle">vector hits</text>
        <rect x="478.6" y="234" width="62.8" height="14" rx="3" class="c-mask"/>
        <text x="510" y="244" class="t-messagebus" font-size="8" text-anchor="middle">hybrid hits</text>
        <rect x="680.2" y="118" width="43.6" height="14" rx="3" class="c-mask"/>
        <text x="702" y="128" class="t-backend" font-size="8" text-anchor="middle">results</text>
        <rect x="675.4" y="234" width="53.199999999999996" height="14" rx="3" class="c-mask"/>
        <text x="702" y="244" class="t-security" font-size="8" text-anchor="middle">benchmark</text>
        <rect x="840.2" y="224" width="91.6" height="14" rx="3" class="c-mask"/>
        <text x="886" y="234" class="t-security" font-size="8" text-anchor="middle">aggregate CSV/PNG</text>

        <!-- Legend -->
        <text x="40" y="361" class="t-primary" font-size="9" font-weight="600">Legend</text>
        <rect x="40" y="366" width="14" height="9" rx="2" class="c-external" stroke-width="1"/>
        <text x="60" y="374" class="t-muted" font-size="8">External</text>
        <rect x="138" y="366" width="14" height="9" rx="2" class="c-backend" stroke-width="1"/>
        <text x="158" y="374" class="t-muted" font-size="8">Backend</text>
        <rect x="231" y="366" width="14" height="9" rx="2" class="c-database" stroke-width="1"/>
        <text x="251" y="374" class="t-muted" font-size="8">Database</text>
        <rect x="329" y="366" width="14" height="9" rx="2" class="c-messagebus" stroke-width="1"/>
        <text x="349" y="374" class="t-muted" font-size="8">Message bus</text>
        <rect x="442" y="366" width="14" height="9" rx="2" class="c-cloud" stroke-width="1"/>
        <text x="462" y="374" class="t-muted" font-size="8">Cloud</text>
        <rect x="525" y="366" width="14" height="9" rx="2" class="c-security" stroke-width="1"/>
        <text x="545" y="374" class="t-muted" font-size="8">Security</text>
      </svg>
